/* XPM */
static char *east[] = {
/* columns rows colors chars-per-pixel */
"32 32 4 1 ",
"  c #0A290A",
". c #1F521F",
"X c #338533",
"o c #4CAF50",
/* pixels */
"oooooooooooooooooooooooooooooooo",
"oooooooooooooooooooooooooooooooo",
"oooooooooooooooooooooooooooooooo",
"ooooooooXXooooooooooooXXoooooooo",
"ooooooooXXooooooooooooXXoooooooo",
"ooooooooXXooooooooooooXXoooooooo",
"ooooooooXXooooooooooooXXoooooooo",
"ooooooooXXooooooooooooXXoooooooo",
"ooooooooXXXXXXXXXXXXXXXXoooooooo",
"ooooooooXXXXXXXXXXXXXXXXoooooooo",
"ooooooooXXXXXXXXXXXXXXXXoooooooo",
"ooooooooXXXX..XXXX..XXXXoooooooo",
"ooooooooXXXX..XXXX..XXXXoooooooo",
"ooooooooXXXX..XXXX..XXXXoooooooo",
"ooooooooXXXX..XXXX..XXXXoooooooo",
"ooooooooXXXX..XXXX..XXXXoooooooo",
"oooooooo......XXXX......oooooooo",
"oooooooo......XXXX......oooooooo",
"oooooooo......XXXX......oooooooo",
"oooooooo......XXXX......oooooooo",
"oooooooo......XXXX......oooooooo",
"oooooooo......XXXX......oooooooo",
"oooooooo......XXXX......oooooooo",
"oooooooo......XXXX......oooooooo",
"oooooooo................oooooooo",
"oooooooo................oooooooo",
"oooooooo................oooooooo",
"oooooooo................oooooooo",
"oooooooo................oooooooo",
"oooooooo................oooooooo",
"oooooooooooooooooooooooooooooooo",
"                                "
};
