/* XPM */
static char *north[] = {
/* columns rows colors chars-per-pixel */
"32 32 4 1 ",
"  c #3A0202",
". c #8A1515",
"X c #BF2323",
"o c #E53636",
/* pixels */
"................................",
".oooooooooooooooooooo.XXXXXXXXX.",
".oooooooooooooooooooo.XXXXXXXXX.",
".oooooooooooooooooooo.XXXXXXXXX.",
".oooooooooooooooooooo.XXXXXXXXX.",
"................................",
".XXXXXX.oooooooooooooooooo.XXXX.",
".XXXXXX.oooooooooooooooooo.XXXX.",
".XXXXXX.oooooooooooooooooo.XXXX.",
".XXXXXX.oooooooooooooooooo.XXXX.",
"................................",
".oooooooooooo.XXXXXXXX.oooooooo.",
".oooooooooooo.XXXXXXXX.oooooooo.",
".oooooooooooo.XXXXXXXX.oooooooo.",
".oooooooooooo.XXXXXXXX.oooooooo.",
"................................",
".XXXXX.oooooooooooooooooooo.XXX.",
".XXXXX.oooooooooooooooooooo.XXX.",
".XXXXX.oooooooooooooooooooo.XXX.",
".XXXXX.oooooooooooooooooooo.XXX.",
"................................",
".oooooooooooooo.XXXXXXXXXXXXXXX.",
".oooooooooooooo.XXXXXXXXXXXXXXX.",
".oooooooooooooo.XXXXXXXXXXXXXXX.",
".oooooooooooooo.XXXXXXXXXXXXXXX.",
"................................",
".XXXXXXXX.oooooooooooo.XXXXXXXX.",
".XXXXXXXX.oooooooooooo.XXXXXXXX.",
".XXXXXXXX.oooooooooooo.XXXXXXXX.",
".XXXXXXXX.oooooooooooo.XXXXXXXX.",
"................................",
"                                "
};
