/* XPM */
static char *south[] = {
/* columns rows colors chars-per-pixel */
"32 32 4 1 ",
"  c #111111",
". c #444444",
"X c #777777",
"o c #AAAAAA",
/* pixels */
"XXXXXXXXXXXXXXXXXXXXXXXXXXXXXXXX",
"XooooooooooooooXoooooooooooooooX",
"XooooooooooooooXoooooooooooooooX",
"XooooooooooooooXoooooooooooooooX",
"XooooooooooooooXoooooooooooooooX",
"XXXXXXXXXXXXXXXXXXXXXXXXXXXXXXXX",
"XooooooXooooooooooooXooooooooooX",
"XooooooXooooooooooooXooooooooooX",
"XooooooXooooooooooooXooooooooooX",
"XooooooXooooooooooooXooooooooooX",
"XXXXXXXXXXXXXXXXXXXXXXXXXXXXXXXX",
"XooooooooooXooooooXooooooooooooX",
"XooooooooooXooooooXooooooooooooX",
"XooooooooooXooooooXooooooooooooX",
"XooooooooooXooooooXooooooooooooX",
"XXXXXXXXXXXXXXXXXXXXXXXXXXXXXXXX",
"XoooooooooooooooXooooooooooooooX",
"XoooooooooooooooXooooooooooooooX",
"XoooooooooooooooXooooooooooooooX",
"XoooooooooooooooXooooooooooooooX",
"XXXXXXXXXXXXXXXXXXXXXXXXXXXXXXXX",
"XooooooooXooooooooooooXooooooooX",
"XooooooooXooooooooooooXooooooooX",
"XooooooooXooooooooooooXooooooooX",
"XooooooooXooooooooooooXooooooooX",
"XXXXXXXXXXXXXXXXXXXXXXXXXXXXXXXX",
"XooooooooooooXooooooooooXooooooX",
"XooooooooooooXooooooooooXooooooX",
"XooooooooooooXooooooooooXooooooX",
"XooooooooooooXooooooooooXooooooX",
"XXXXXXXXXXXXXXXXXXXXXXXXXXXXXXXX",
"                                "
};
